<svg xmlns="http://www.w3.org/2000/svg" width="900" height="520" viewBox="0 0 900 520">
<rect width="100%" height="100%" fill="#ffffff" />
<text x="450.0" y="30" text-anchor="middle" font-size="22" font-family="Arial">Comparação de inserções na árvore binária</text>
<line x1="90" y1="450" x2="860" y2="450" stroke="#333333" stroke-width="2" />
<line x1="90" y1="50" x2="90" y2="450" stroke="#333333" stroke-width="2" />
<line x1="90" y1="450.00" x2="860" y2="450.00" stroke="#d9d9d9" stroke-dasharray="4 4" /><text x="80" y="455.00" text-anchor="end" font-size="12">0</text><line x1="90" y1="370.00" x2="860" y2="370.00" stroke="#d9d9d9" stroke-dasharray="4 4" /><text x="80" y="375.00" text-anchor="end" font-size="12">999,990,000</text><line x1="90" y1="290.00" x2="860" y2="290.00" stroke="#d9d9d9" stroke-dasharray="4 4" /><text x="80" y="295.00" text-anchor="end" font-size="12">1,999,980,000</text><line x1="90" y1="210.00" x2="860" y2="210.00" stroke="#d9d9d9" stroke-dasharray="4 4" /><text x="80" y="215.00" text-anchor="end" font-size="12">2,999,970,000</text><line x1="90" y1="130.00" x2="860" y2="130.00" stroke="#d9d9d9" stroke-dasharray="4 4" /><text x="80" y="135.00" text-anchor="end" font-size="12">3,999,960,000</text><line x1="90" y1="50.00" x2="860" y2="50.00" stroke="#d9d9d9" stroke-dasharray="4 4" /><text x="80" y="55.00" text-anchor="end" font-size="12">4,999,950,000</text>
<text x="90.00" y="475" text-anchor="middle" font-size="12">10000</text><text x="175.56" y="475" text-anchor="middle" font-size="12">20000</text><text x="261.11" y="475" text-anchor="middle" font-size="12">30000</text><text x="346.67" y="475" text-anchor="middle" font-size="12">40000</text><text x="432.22" y="475" text-anchor="middle" font-size="12">50000</text><text x="517.78" y="475" text-anchor="middle" font-size="12">60000</text><text x="603.33" y="475" text-anchor="middle" font-size="12">70000</text><text x="688.89" y="475" text-anchor="middle" font-size="12">80000</text><text x="774.44" y="475" text-anchor="middle" font-size="12">90000</text><text x="860.00" y="475" text-anchor="middle" font-size="12">100000</text>
<polyline fill="none" stroke="#0b6e4f" stroke-width="3" points="90.00,449.99 175.56,449.97 261.11,449.96 346.67,449.94 432.22,449.93 517.78,449.91 603.33,449.89 688.89,449.88 774.44,449.86 860.00,449.84" />
<polyline fill="none" stroke="#c84c09" stroke-width="3" points="90.00,446.00 175.56,434.00 261.11,414.00 346.67,386.00 432.22,350.00 517.78,306.00 603.33,254.00 688.89,194.00 774.44,126.00 860.00,50.00" />
<text x="450.0" y="500" text-anchor="middle" font-size="14">Quantidade de elementos</text>
<text x="25" y="260.0" text-anchor="middle" font-size="14" transform="rotate(-90 25 260.0)">Número de comparações</text>
<circle cx="680" cy="60" r="6" fill="#0b6e4f" />
<text x="695" y="65" font-size="13">Inserção aleatória</text>
<circle cx="680" cy="85" r="6" fill="#c84c09" />
<text x="695" y="90" font-size="13">Inserção alternada</text>
</svg>
